<?xml version="1.0" encoding="utf-8"?>
<!-- Generator: Adobe Illustrator 23.0.4, SVG Export Plug-In . SVG Version: 6.00 Build 0)  -->
<svg version="1.1" id="Layer_1" xmlns="http://www.w3.org/2000/svg" xmlns:xlink="http://www.w3.org/1999/xlink" x="0px" y="0px"
	 viewBox="0 0 1920.2 413.8" style="enable-background:new 0 0 1920.2 413.8;" xml:space="preserve">
<style type="text/css">
	.st0{fill:#57058B;}
	.st1{fill:#F15A24;}
	.st2{enable-background:new    ;}
	.st3{fill:#FFFFFF;}
</style>
<title>Asset 2</title>
<g id="Layer_1-2">
	<polygon class="st0" points="0.2,0 1920.2,1.6 1919.9,267.6 0,196.5 	"/>
	<polygon class="st1" points="0,77.8 1109.2,64.6 1109,394.6 0,343.8 	"/>
	<g class="st2">
		<path class="st0" d="M866.7,86.8h12.6v49.9h-12.6V86.8z"/>
		<path class="st0" d="M931.3,99.2v25.1c0,8.2-4.3,12.4-12.7,12.4h-27.1V86.8h27.1C927,86.8,931.3,91,931.3,99.2z M918.7,101.2
			c0-2.8-1-3.7-3.9-3.7h-10.7V126h10.7c2.9,0,3.9-1,3.9-3.7V101.2z"/>
		<path class="st0" d="M994.1,86.8v49.9h-12.6v-29.1l-10.9,17.2h-4.4l-10.9-17.3v29.1h-12.6V86.8h12.2l13.6,21.4l13.5-21.4H994.1z"
			/>
	</g>
	<g class="st2">
		<path class="st0" d="M865.6,201c0-0.7,0-0.8,0.1-1l12.5-1.5v0.5c0,2.7,1,3.7,3.9,3.7h8.3c2.9,0,3.9-1,3.9-3.7v-1.3
			c0-2.3-0.8-2.9-5-3.5l-11.4-1.7c-8.7-1.3-12-4.3-12-11.5v-6.5c0-8.2,4.3-12.4,12.7-12.4H894c8.4,0,12.7,4.2,12.7,12.3
			c0,0.7,0,0.8-0.1,1l-12.5,1.5v-0.4c0-2.8-1-3.7-3.9-3.7h-7.8c-3,0-4.1,1-4.1,3.7v1.1c0,2.4,0.7,2.8,5.1,3.4l11.5,1.7
			c8.8,1.3,11.9,4.3,11.9,11.6v6.7c0,8.2-4.3,12.4-12.7,12.4h-15.9C869.9,213.4,865.6,209.2,865.6,201z"/>
		<path class="st0" d="M960,162.8v49.9h-12.6v-19.9h-16.8v19.9H918v-49.9h12.6v19.3h16.8v-19.3H960z"/>
	</g>
	<g class="st2">
		<path class="st0" d="M1012.6,174.5V201c0,8.2-4.3,12.4-12.7,12.4h-15.8c-8.4,0-12.7-4.2-12.7-12.4v-26.5c0-8.2,4.3-12.4,12.7-12.4
			h15.8C1008.3,162.1,1012.6,166.3,1012.6,174.5z M996.1,172.8h-8.2c-2.9,0-3.9,0.9-3.9,3.7V199c0,2.7,1,3.7,3.9,3.7h8.2
			c2.9,0,3.9-1,3.9-3.7v-22.5C1000,173.7,999,172.8,996.1,172.8z"/>
	</g>
	<g class="st2">
		<path class="st0" d="M1093.3,162.8l-11.8,49.9H1064l-7.6-36.8l-7.6,36.8h-17.4l-11.8-49.9h12.7l7.8,37.5l7.8-37.5h17l7.8,37.5
			l7.8-37.5H1093.3z"/>
	</g>
	<g class="st2">
		<path class="st0" d="M866,277v-26.5c0-8.2,4.3-12.4,12.7-12.4h15.8c8.4,0,12.7,4.2,12.7,12.3c0,0.6,0,0.8-0.1,1l-12.5,1.5v-0.4
			c0-2.8-1-3.7-3.9-3.7h-8.2c-2.9,0-3.9,0.9-3.9,3.7V275c0,2.7,1,3.7,3.9,3.7h8.2c2.9,0,3.9-1,3.9-3.7v-0.5l12.5,1.5
			c0.1,0.3,0.1,0.4,0.1,1c0,8.2-4.3,12.4-12.7,12.4h-15.8C870.3,289.4,866,285.2,866,277z"/>
	</g>
	<g class="st2">
		<path class="st0" d="M946.4,278h-17.6l-3.2,10.7h-12.9l15.8-49.9h18.4l15.8,49.9h-13L946.4,278z M943.2,267.2l-5.5-18.5l-5.6,18.5
			H943.2z"/>
	</g>
	<g class="st2">
		<path class="st0" d="M968.8,277c0-0.7,0-0.8,0.1-1l12.5-1.5v0.5c0,2.7,1,3.7,3.9,3.7h8.3c2.9,0,3.8-1,3.8-3.7v-1.3
			c0-2.3-0.8-2.9-5-3.5l-11.4-1.7c-8.7-1.3-12-4.3-12-11.5v-6.5c0-8.2,4.3-12.4,12.7-12.4h15.5c8.4,0,12.7,4.2,12.7,12.3
			c0,0.7,0,0.8-0.1,1l-12.5,1.5v-0.4c0-2.8-1-3.7-3.8-3.7h-7.8c-3,0-4.1,1-4.1,3.7v1.1c0,2.4,0.7,2.8,5.1,3.4l11.5,1.7
			c8.8,1.3,11.9,4.3,11.9,11.6v6.7c0,8.2-4.3,12.4-12.7,12.4h-15.9C973.1,289.4,968.8,285.2,968.8,277z"/>
		<path class="st0" d="M1033.8,249.5v8.3h19.9v10.7h-19.9v9.5h22.8v10.7h-35.4v-49.9h35.4v10.7H1033.8z"/>
	</g>
	<g class="st2">
		<path class="st3" d="M905.7,354v10.7h-41.1v-16c0-6.6,2.5-9,11.9-11.6l9.7-2.7c5.8-1.5,6.4-2,6.4-4.5v-1.4c0-2.8-1-3.7-3.9-3.7
			h-7.1c-2.9,0-3.9,0.9-3.9,3.7v0.4l-12.5-1.5c-0.1-0.3-0.1-0.3-0.1-1c0-8.1,4.3-12.3,12.7-12.3h14.6c8.5,0,12.7,4.2,12.7,12.4v7.7
			c0,6.2-2.7,8.5-13.2,11.3l-9.7,2.7c-4.8,1.3-5.2,1.7-5.2,4.1v1.7H905.7z"/>
		<path class="st3" d="M956.6,326.5V353c0,8.2-4.3,12.4-12.7,12.4h-15.7c-8.4,0-12.7-4.2-12.7-12.4v-26.5c0-8.2,4.3-12.4,12.7-12.4
			h15.7C952.2,314.1,956.6,318.3,956.6,326.5z M940.1,324.8h-8.1c-2.9,0-3.9,0.9-3.9,3.7V351c0,2.7,1,3.7,3.9,3.7h8.1
			c2.9,0,3.9-1,3.9-3.7v-22.5C944,325.7,943,324.8,940.1,324.8z"/>
		<path class="st3" d="M1006.2,354v10.7h-37.5V354h12.7v-25.4l-9.6,6.5l-5.7-9.9l15.8-10.4h12.1V354H1006.2z"/>
		<path class="st3" d="M1056.1,326.5V353c0,8.2-4.3,12.4-12.7,12.4h-15.7c-8.4,0-12.7-4.2-12.7-12.3c0-0.6,0-0.8,0.1-1l12.5-1.5v0.5
			c0,2.7,1,3.7,3.9,3.7h8.1c2.9,0,3.9-1,3.9-3.7v-5.3c-1.2,1-2.7,1.5-5,1.5h-10.9c-8.4,0-12.7-4.2-12.7-12.4v-8.2
			c0-8.2,4.3-12.4,12.7-12.4h15.7C1051.8,314.1,1056.1,318.3,1056.1,326.5z M1043.5,332.7v-4.1c0-2.8-1-3.7-3.9-3.7h-8.1
			c-2.9,0-3.9,0.9-3.9,3.7v4.1c0,2.7,1,3.6,3.9,3.6h8.1C1042.5,336.3,1043.5,335.4,1043.5,332.7z"/>
	</g>
</g>
</svg>
